<svg xmlns="http://www.w3.org/2000/svg" xmlns:xlink="http://www.w3.org/1999/xlink" width="510" height="440" viewBox="0 0 510 440">
    <defs>
        <path id="a" d="M89.71 140.548l-65.506-20.344 2.408-32.583-10.398 17.253-6.555.694-3.75.214-5.032-1.151 1.395-26.45 3.82 2.538V48.904c0-9.292 5.242-17.789 13.534-21.904 6.168-3.063 12.553-5.214 14.664-5.303 4.338-.181 4.519-6.538 4.519-6.538V3.538L58.874.45l1.264 18.524s16.098 6.23 20.362 7.893c.29.114.573.228.852.342 9.015 3.7 15.375 11.965 16.886 21.63l4.56 29.157 3.435-1.453 2.53 11.078-20.425 8.353-8.7-27.606-1.965 19.253 12.036 52.927"/>
        <path id="c" d="M159.4 79.452c0 43.808-35.514 79.322-79.323 79.322C36.27 158.774.756 123.26.756 79.452S36.27.132 80.077.132c43.809 0 79.322 35.512 79.322 79.32"/>
        <path id="e" d="M73.904 67.05c-9.145 3.692-19.142 5.726-29.616 5.726a79.048 79.048 0 0 1-25.798-4.298c2.847-20.458-.369-29.053-.369-29.053l.081 8.698L.844 46.82s-.214-2.421-.3-24.374C.47 2.645 25.977 2.057 25.977 2.057s9.57.07 31.071-1.885C95.015-3.28 95.015 46.643 95.015 46.643l-19.554-.455-.298-13.017-1.26 33.88"/>
        <path id="g" d="M159.4 79.452c0 43.808-35.514 79.322-79.323 79.322C36.27 158.774.756 123.26.756 79.452S36.27.132 80.077.132c43.809 0 79.322 35.512 79.322 79.32"/>
    </defs>
    <g fill="none" fill-rule="evenodd">
        <path fill="#FAFAFA" d="M297.268 437.189c79.05 0 200.186-74.569 200.186-153.594 0-50.761 24.037-105.89-53.05-138.084-42.921-17.925-187.927-28.017-216.2-28.017-32.968 0-100.098-7.451-140.129 35.522C32.122 213.08 7 334.087 7 380.154c0 79.025 211.219 57.035 290.268 57.035z"/>
        <path fill="#719CAC" d="M238 299h84v-20h-84z"/>
        <path fill="#719CAC" d="M58 280h351v-14H58z"/>
        <path fill="#719CAC" d="M116 276.018L164.462 424l4.538-1.372L128.464 276l-12.464.018M83.552 277L41 423.577 45.58 425 95 280.556 83.552 277"/>
        <path fill="#C8DBE8" d="M83.284 323.277s24.922 25.58 89.002 18.476c64.081-7.107 64.081-29.845 65.505-39.082 1.425-9.237 26.345-119.379-34.889-118.668-61.233.71-64.08 94.507-76.184 110.14-12.105 15.633-52.378 22.707-43.434 29.134"/>
        <path fill="#A6C5DD" d="M106.224 336L82 429.994s1.86-.883 3.169 0C86.478 430.878 118 339.41 118 339.41L106.224 336M146 343s.459 86.375 1.792 86.808c1.334.432 4 0 4 0L154 343h-8M191 339.077L225.052 431l3.948-.193L203.25 336 191 339.077"/>
        <path fill="#B37B6F" d="M123.477 411L136 409.063 135.747 387 118 392.177 123.477 411"/>
        <path fill="#F0AF9F" d="M156.798 116s-10.13 12.263-9.99 15.082c.142 2.818-5.474 18.555 2.405 27.434 7.878 8.878 10.341 9.19 19.543 4.419.375-.195 12.662-6.202 12.662-6.202l8.582-8.738-3.799-10.712-8.3-14.517-3.517-3.665-16.883-2.537-.703-.564"/>
        <g transform="translate(121 158)">
            <mask id="b" fill="#fff">
                <use xlink:href="#a"/>
            </mask>
            <path fill="#B37B6F" d="M38.809 3.538v11.621s-.181 6.357-4.52 6.538c-2.11.09-8.493 2.24-14.663 5.303-8.292 4.115-13.534 12.612-13.534 21.904V80.72l-4.159-1.452-6.687 21.43 10.664 5.085 1.989-4.177 8.315 3.269 3.073-2.18-2.26 16.89 65.707-4.904-5.061-27.06-.904-6.174 5.965-10.533 5.604 25.061 20.425-8.353-2.53-11.078-3.435 1.453-5.965-38.137s-1.033-7.95-8.148-9.658c-4.446-1.069-28.547-11.227-28.547-11.227L58.874.45 38.809 3.538" mask="url(#b)"/>
            <path fill="#F0AF9F" d="M38.809 3.538v11.621s-.181 6.357-4.52 6.538c-2.11.09-8.493 2.24-14.663 5.303-8.292 4.115-13.534 12.612-13.534 21.904V80.72l-4.159-1.452-6.687 21.43 10.664 5.085 1.989-4.177 8.315 3.269 3.073-2.18-2.26 16.89 65.707-4.904-5.061-27.06-.904-6.174 5.965-10.533 5.604 25.061 20.425-8.353-2.53-11.078-3.435 1.453-4.56-29.157c-1.511-9.665-7.871-17.93-16.886-21.63-.28-.114-.563-.228-.852-.342a15880.88 15880.88 0 0 0-20.362-7.893L58.874.45 38.809 3.538" mask="url(#b)"/>
            <path fill="#86BADA" d="M24.253 24.267c-.177.076 26.467 21.843 26.467 21.843l28.522-20.157 15.81 2.344 19.775 63.372-30.686 6.339 4.938 44.189-77.223-20.382 2.558-15.93-5.115-.342s-2.899 3.597-3.41 3.769c-.512.171-16.707-6.338-16.707-6.338L1.967 25.385l22.286-1.118" mask="url(#b)"/>
            <path fill="#5C99B4" d="M77.673 87.62c-.19-.02-.144-2.128.046-5.525.194-3.397.535-8.081.963-13.249.427-5.172.85-9.847 1.18-13.228.343-3.383.538-5.47.729-5.47.188-.002.336 2.12.241 5.528-.083 3.408-.354 8.106-.781 13.282-.852 10.351-1.995 18.702-2.378 18.663M105.811 76.458c.114.373-3.517 1.806-7.931 3.67-4.422 1.854-7.985 3.447-8.17 3.104-.179-.325 3.145-2.492 7.639-4.377 4.487-1.894 8.357-2.754 8.462-2.397M102.961 75.253c.086.371-2.173 1.212-5.046 1.877-2.872.664-5.271.901-5.356.53-.084-.37 2.174-1.211 5.048-1.877 2.871-.663 5.27-.9 5.354-.53M71.657 76.397c.086.148-.646.81-2.122 1.355-1.456.547-3.703.883-6.076.305-2.375-.58-4.22-1.91-5.264-3.068-1.065-1.163-1.414-2.088-1.27-2.18.168-.12.79.576 1.928 1.462 1.126.89 2.838 1.934 4.93 2.443 2.09.508 4.087.369 5.494.097 1.415-.266 2.285-.599 2.38-.414M26.055 95.175c-.091-.003-.154-.685-.079-1.9.073-1.216.282-2.959.568-5.098.14-1.068.301-2.238.43-3.486.066-.625.116-1.256.13-1.91.014-.64-.034-1.27-.283-1.714-.228-.44-.723-.717-1.395-.978-.66-.24-1.497-.595-2.17-1.097a7.899 7.899 0 0 1-2.949-4.232 7.346 7.346 0 0 1-.182-3.321 7.648 7.648 0 0 1 1.226-2.936c1.176-1.71 2.938-2.829 4.718-3.19l-.452.774c-1.057-3.643-1.508-6.793-1.681-8.999-.168-2.211-.09-3.481.033-3.488.139-.009.302 1.245.674 3.398.374 2.15.987 5.206 2.129 8.73l.2.62-.65.153c-1.454.342-2.912 1.311-3.87 2.757a6.411 6.411 0 0 0-.986 2.42c-.147.876-.1 1.805.162 2.7a6.666 6.666 0 0 0 2.419 3.52c.572.426 1.143.685 1.871.97.358.15.737.317 1.103.573.365.25.705.614.916 1.026.419.835.4 1.659.375 2.356a21.93 21.93 0 0 1-.206 2.008 79.364 79.364 0 0 1-.602 3.502l-.998 5.012c-.236 1.178-.353 1.834-.451 1.83M9.627 94.232c-.364.108-1.467-2.557-2.462-5.95-.996-3.395-1.51-6.233-1.145-6.34.364-.109 1.466 2.555 2.463 5.95.996 3.393 1.508 6.232 1.144 6.34M11.924 90.577c-.335.181-1.795-1.9-3.263-4.647-1.468-2.749-2.387-5.122-2.052-5.302.334-.18 1.794 1.9 3.262 4.648 1.468 2.747 2.387 5.12 2.053 5.3" mask="url(#b)"/>
            <path fill="#FAFBFC" d="M36.784 60.07c-1.49.29-3.05-1.3-3.483-3.553-.434-2.251.423-4.311 1.914-4.601 1.49-.288 3.049 1.302 3.482 3.553.433 2.253-.423 4.312-1.913 4.6M60.948 55.062c1.36.676 1.564 3.054.452 5.311-1.111 2.258-3.115 3.54-4.476 2.864-1.36-.676-1.562-3.054-.451-5.311 1.111-2.256 3.115-3.538 4.475-2.864M45.908 72.616c1.516.054 2.68 1.995 2.6 4.332-.083 2.34-1.377 4.193-2.895 4.14-1.516-.054-2.68-1.992-2.598-4.332.081-2.34 1.377-4.193 2.893-4.14M74.98 84.016c.943 1.195.073 3.465-1.944 5.07-2.015 1.604-4.414 1.935-5.357.739-.94-1.194-.07-3.464 1.946-5.069 2.015-1.604 4.414-1.934 5.356-.74M71.657 42.529c.044 1.524-1.319 2.8-3.041 2.848-1.725.05-3.155-1.147-3.199-2.673-.042-1.523 1.32-2.798 3.043-2.847 1.723-.05 3.155 1.149 3.197 2.672M92.688 39.667c.694 1.355-.022 3.116-1.6 3.931-1.58.814-3.422.375-4.115-.982-.694-1.355.023-3.116 1.602-3.93 1.578-.814 3.42-.376 4.113.98M73.718 60.135c1.165.976 1.109 2.975-.127 4.463-1.236 1.49-3.183 1.904-4.35.926-1.164-.975-1.107-2.973.129-4.462 1.236-1.489 3.182-1.903 4.348-.927M92.06 56.024c.51 1.437-.292 3.035-1.788 3.57-1.497.536-3.123-.195-3.632-1.632-.509-1.435.292-3.033 1.789-3.569 1.495-.535 3.121.196 3.63 1.631M102.321 63.964c.01.764-.345 1.456-.87 1.986a3.686 3.686 0 0 1-2.043 1.03 3.675 3.675 0 0 1-2.257-.357c-.66-.344-1.208-.895-1.43-1.626-.22-.726-.053-1.504.46-2.154.508-.65 1.361-1.16 2.382-1.32 1.02-.159 1.988.066 2.669.53.684.462 1.08 1.152 1.09 1.911M86.24 75.253c.814 1.287.212 3.134-1.343 4.127-1.556.993-3.476.751-4.29-.536-.813-1.286-.21-3.135 1.346-4.125 1.555-.994 3.474-.754 4.287.534M96.336 93.426a3.79 3.79 0 0 1-2.008.4c-.613-.05-1.114-.238-1.435-.617-.322-.379-.426-.906-.378-1.52a3.833 3.833 0 0 1 .71-1.93c.45-.611 1.094-.998 1.815-1.038.714-.047 1.49.264 2.036.905.545.643.727 1.463.569 2.164-.155.707-.638 1.288-1.309 1.636M109.216 83.419a3.46 3.46 0 0 1-.579 1.977c-.357.523-.82.876-1.368.962-.549.086-1.098-.108-1.594-.497a3.455 3.455 0 0 1-1.154-1.706c-.217-.727-.149-1.473.194-2.076a2.374 2.374 0 0 1 1.706-1.177 2.363 2.363 0 0 1 1.98.597c.51.472.801 1.16.815 1.92M84.692 25.78c1.3.786 1.366 3.073.147 5.105-1.22 2.033-3.26 3.041-4.562 2.255-1.3-.787-1.364-3.073-.145-5.105 1.219-2.033 3.26-3.042 4.56-2.255M41.016 38.921c1.146 1.002 1.157 2.872.025 4.177-1.13 1.304-2.975 1.552-4.12.55-1.144-1-1.156-2.87-.024-4.176 1.13-1.305 2.975-1.55 4.12-.55M14.864 24.218c.43-.623 1.317-.855 2.417-.637 1.094.215 2.39.895 3.512 1.99 1.121 1.097 1.833 2.38 2.077 3.474.246 1.097.04 1.995-.57 2.444-.612.453-1.499.397-2.442.025-.944-.377-1.957-1.063-2.898-1.985-.943-.92-1.654-1.917-2.054-2.857-.396-.936-.476-1.826-.042-2.454M28.386 41.116c.396.647.468 1.422.174 2.146-.29.721-.953 1.382-1.85 1.708-.9.325-1.829.244-2.509-.127a2.34 2.34 0 0 1-1.232-1.76c-.108-.756.1-1.482.44-2.062.346-.582.824-1.025 1.433-1.245.608-.222 1.258-.188 1.894.037.631.23 1.25.653 1.65 1.303M51.008 47.226c1.516.08 2.647 2.026 2.525 4.344-.121 2.321-1.449 4.136-2.963 4.055-1.515-.079-2.647-2.023-2.525-4.344.121-2.32 1.449-4.135 2.963-4.055M30.562 71.897c.56.51.817 1.264.69 2.09-.122.822-.64 1.703-1.49 2.332-.851.63-1.843.868-2.66.74-.823-.12-1.464-.59-1.782-1.28-.32-.693-.29-1.464-.07-2.152a3.519 3.519 0 0 1 1.251-1.753 3.491 3.491 0 0 1 2.035-.68c.719-.008 1.461.191 2.026.703M38.657 94.915c-.713.265-1.505.1-2.217-.336-.713-.438-1.353-1.146-1.794-2.047-.442-.904-.61-1.844-.52-2.68.093-.833.444-1.563 1.09-1.968.64-.404 1.462-.393 2.267 0 .803.39 1.583 1.168 2.094 2.21.511 1.043.648 2.138.464 3.016-.18.88-.675 1.542-1.384 1.805M56.894 92.56c1.51.15 2.522 2.447 2.26 5.131-.265 2.684-1.702 4.739-3.213 4.59-1.51-.149-2.52-2.447-2.257-5.13.263-2.685 1.7-4.74 3.21-4.59M44.828 109.191c-.662 1.372-2.89 1.662-4.976.645-2.087-1.016-3.241-2.952-2.578-4.324.662-1.371 2.889-1.661 4.976-.644 2.085 1.017 3.24 2.953 2.578 4.323M70.05 101.987c1.518-.047 2.8 1.597 2.866 3.673.066 2.077-1.111 3.798-2.629 3.846-1.516.048-2.799-1.595-2.865-3.67-.064-2.077 1.112-3.8 2.628-3.849M60.348 117.77c-.643.4-1.475.37-2.292-.06-.816-.427-1.607-1.26-2.117-2.36-.508-1.103-.628-2.249-.426-3.15.201-.904.716-1.562 1.437-1.797.723-.235 1.51-.023 2.212.456.705.483 1.332 1.23 1.764 2.167.433.936.596 1.9.507 2.753-.09.848-.439 1.589-1.085 1.99M15.75 103.629c-1.197.94-3.017.607-4.063-.74-1.047-1.347-.927-3.2.27-4.14 1.195-.938 3.014-.607 4.063.742 1.046 1.347.925 3.2-.27 4.138M24.215 94.694c-1.028 1.122-3.23.767-4.918-.794-1.69-1.56-2.224-3.735-1.196-4.858 1.028-1.122 3.229-.767 4.917.795 1.688 1.56 2.224 3.735 1.197 4.857M3.158 68.83c.79-1.301 3.293-1.215 5.586.191 2.296 1.408 3.514 3.604 2.724 4.906-.79 1.3-3.291 1.216-5.586-.193-2.295-1.406-3.514-3.602-2.724-4.903M21.398 63.172c.367.665.372 1.456.025 2.191-.342.734-1.041 1.405-1.972 1.775-.932.37-1.898.36-2.646.06-.755-.302-1.289-.882-1.472-1.62-.186-.74-.009-1.493.374-2.127a3.525 3.525 0 0 1 1.726-1.45 3.513 3.513 0 0 1 2.246-.125c.709.2 1.351.628 1.72 1.296M2.578 50.539c.535-1.428 3.01-1.811 5.532-.86 2.52.953 4.13 2.881 3.596 4.309-.534 1.426-3.01 1.811-5.53.86-2.522-.953-4.132-2.883-3.598-4.309M15.786 41.12c1.48-.333 3.019.912 3.436 2.78.417 1.87-.445 3.656-1.927 3.99-1.48.333-3.018-.912-3.435-2.781-.419-1.87.445-3.655 1.926-3.99M2.094 34.27c.707-1.35 2.827-1.625 4.735-.618 1.909 1.009 2.883 2.922 2.176 4.272-.707 1.348-2.827 1.623-4.735.615-1.908-1.009-2.883-2.922-2.176-4.27M6.85 93.196c.646 1.38-.25 3.172-2.004 4.001-1.753.83-3.7.385-4.345-.996-.648-1.378.249-3.169 2.004-4 1.752-.83 3.698-.383 4.345.995" mask="url(#b)"/>
        </g>
        <path fill="#2B2A52" d="M175.225 162.933c-.034 2.37.31 4.73.939 7.017 1.779 6.472 6.136 16.708 20.54 13.412 16.063-3.677 8.053-20.561 8.053-20.561l1.046-.742c1.326-.941 2.19-2.45 2.197-4.082.01-2.418-1.803-3.05-1.803-3.05 4.323-11.892-6.083-12.695-6.083-12.695v-1.286c-2.442-17.058-10.192-26.45-18.502-30.746-5.872-3.038-14.313-2.518-14.313-2.518s-3.842-3.696-13.126-2.41c-9.285 1.284-3.683 15.105-3.683 15.105l-1.6.964c-10.404 4.66-6.243 35.675-6.243 35.675s-7.522 5.464-6.562 14.785c.96 9.32 11.41 10.485 11.41 10.485s12.12-2.772 12.76-2.933c.641-.16-.333-15.04-.333-15.04-6.573-2.719-11.934-9.775-11.832-23.688.103-14.05 10.725-23.14 10.725-23.14 4.161 6.105 13.926 6.266 13.926 6.266 0 5.947 6.243 11.892 6.243 11.892s1.302 14.468-1.617 18.967c-1.632 2.515-2.104 5.667-2.142 8.323"/>
        <path fill="#394589" d="M202.912 295.405s-77.772-43.25-102.076-32.766C76.533 273.123 34 367.466 34 367.466L48.288 376s29.01-34.756 62.269-80.595c0 0 60.76 37.563 86.279 20.946 25.52-16.617 6.076-20.946 6.076-20.946"/>
        <path fill="#394589" d="M183 285.975L206.073 278s7.96 19.564 3.645 25.405c-4.315 5.84-.97 0-.97 0L183 285.975"/>
        <path fill="#B37B6F" d="M35.484 368L25 382.082 37.375 384 47 374.569S42.047 368 35.484 368"/>
        <path fill="#2B2A52" d="M123.606 411.694s-12.576 20.93-7.323 24.067C121.535 438.9 136 410.075 136 410.075V409l-12.394 2.694M25.908 380S-2.913 391.259.24 395.998c3.156 4.739 36.887-8.865 36.887-8.865l1.872-4.19L25.908 380"/>
        <path fill="#F0AF9F" d="M166 276.821l46.17-16.296-1.58-6.687L226.51 247s7.262 18.346.835 25.381c-4.343 4.752-47.13 10.619-47.13 10.619L166 276.821"/>
        <path fill="#BEDDEB" d="M192 143.5c0 4.694-2.686 8.5-6 8.5s-6-3.806-6-8.5c0-4.695 2.686-8.5 6-8.5s6 3.805 6 8.5"/>
        <path fill="#BEDDEB" d="M184.233 135.951S186.856 116.129 175 108c0 0 3.973.477 6.64 2.094 0 0 8.191 4.143 5.982 28.906l-3.39-3.049M172 155.5c0 .828-1.344 1.5-3 1.5-1.657 0-3-.672-3-1.5s1.343-1.5 3-1.5c1.656 0 3 .672 3 1.5"/>
        <path fill="#BEDDEB" d="M186.983 147.002c.083.019-.119 1.265-1.205 2.896-1.058 1.63-3.1 3.479-5.763 4.582-2.66 1.1-5.232 1.376-7.05 1.48-1.832.091-2.96.013-2.965-.098-.007-.128 1.116-.266 2.912-.51 1.787-.257 4.27-.628 6.803-1.677 2.524-1.047 4.488-2.703 5.607-4.151 1.14-1.443 1.532-2.578 1.661-2.522"/>
        <path fill="#373F85" d="M202.022 304.323c.143-.407.918-.433 1.734-.058.817.373 1.364 1.006 1.221 1.412-.14.406-.916.433-1.733.059-.816-.375-1.363-1.008-1.222-1.413M190.012 300.19c.146-.404 1.602-.142 3.251.583 1.651.726 2.87 1.639 2.725 2.04-.146.4-1.602.139-3.253-.586-1.649-.724-2.869-1.637-2.723-2.038M179.012 295.188c.145-.4 1.602-.14 3.252.584 1.65.725 2.87 1.638 2.724 2.04-.145.401-1.601.14-3.252-.585-1.65-.724-2.87-1.639-2.724-2.04M167.012 290.188c.145-.401 1.601-.14 3.252.585 1.651.725 2.87 1.636 2.724 2.04-.145.4-1.602.138-3.252-.587-1.65-.724-2.87-1.637-2.724-2.038M156.012 286.188c.145-.401 1.601-.14 3.25.585 1.653.725 2.872 1.638 2.726 2.038-.145.403-1.602.14-3.252-.585-1.65-.724-2.87-1.637-2.724-2.038M144.012 281.187c.145-.4 1.602-.138 3.251.586 1.651.726 2.87 1.638 2.725 2.04-.145.4-1.602.138-3.251-.586-1.651-.723-2.87-1.636-2.725-2.04M133.012 276.188c.145-.4 1.602-.14 3.252.585 1.65.724 2.87 1.637 2.724 2.04-.145.4-1.601.139-3.252-.586-1.65-.726-2.87-1.639-2.724-2.04M121.008 272.216c.12-.428 1.571-.2 3.241.514.834.358 1.562.762 2.056 1.138.49.383.756.727.683.936-.071.208-.47.246-1.053.135-.586-.1-1.358-.326-2.178-.679-1.637-.7-2.869-1.615-2.749-2.044M109.004 270.727c-.091-.264 1.244-.725 2.987-.727 1.74-.007 3.067.394 3.007.66-.058.278-1.403.332-2.997.34-1.591 0-2.91 0-2.997-.273M99.082 277.968c-.29-.218.199-1.67 1.3-3.092 1.1-1.435 2.379-2.122 2.584-1.796.213.328-.603 1.437-1.619 2.763-1.023 1.32-1.964 2.356-2.265 2.125M93.099 288.979c-.295-.175.094-1.428.868-2.797.774-1.37 1.64-2.338 1.934-2.161.295.176-.094 1.43-.868 2.798-.774 1.37-1.64 2.338-1.934 2.16M87.099 298.98c-.295-.178.094-1.43.868-2.8.774-1.369 1.64-2.335 1.934-2.16.295.178-.094 1.43-.868 2.8-.774 1.368-1.64 2.335-1.934 2.16M80.099 309.98c-.295-.178.094-1.43.867-2.8.774-1.37 1.64-2.337 1.936-2.159.294.175-.094 1.428-.869 2.797-.774 1.37-1.64 2.337-1.934 2.161M74.099 320.98c-.295-.176.094-1.43.868-2.799.774-1.368 1.64-2.337 1.935-2.16.294.176-.095 1.43-.87 2.798-.772 1.368-1.64 2.337-1.933 2.16M68.099 331.979c-.295-.175.094-1.428.868-2.797.774-1.37 1.64-2.338 1.935-2.161.294.175-.094 1.43-.868 2.798-.774 1.37-1.641 2.338-1.935 2.16M61.098 341.98c-.294-.177.095-1.43.868-2.799.774-1.37 1.641-2.337 1.935-2.16.295.176-.094 1.43-.868 2.799s-1.64 2.336-1.935 2.16M55.099 352.98c-.295-.178.094-1.43.868-2.8.774-1.368 1.64-2.335 1.934-2.16.295.178-.094 1.43-.868 2.8-.774 1.368-1.64 2.335-1.934 2.16M49.098 363.98c-.294-.177.094-1.43.869-2.8.774-1.37 1.64-2.337 1.935-2.159.294.175-.094 1.427-.87 2.797-.774 1.37-1.64 2.338-1.934 2.161M44.198 371.954c-.33-.204-.239-1.018.204-1.822.443-.802 1.07-1.29 1.4-1.085.33.201.239 1.017-.203 1.82-.443.803-1.07 1.289-1.4 1.087"/>
        <path fill="#373F85" d="M34 367.05L48.818 376 54 369.91 36.769 359 34 367.05"/>
        <path fill="#384287" d="M93.614 316.38L116.966 399l19.919-3.046s3.104-56.116-15.007-78.529H161c-17.741-5.543-34.512-13.141-50.493-22.414-11.398-.4-19.913 10.372-16.893 21.368"/>
        <path fill="#373F85" d="M150 316.348c.024-.263 1.387-.408 3.044-.324 1.658.083 2.98.365 2.956.627-.026.264-1.39.409-3.046.325-1.657-.084-2.979-.365-2.954-.628M138 315.348c.026-.263 1.39-.408 3.046-.324 1.657.084 2.979.365 2.954.628-.026.263-1.387.408-3.044.324-1.658-.083-2.98-.366-2.956-.628M125 314.348c.024-.263 1.388-.408 3.045-.324 1.658.084 2.98.365 2.955.629-.024.262-1.389.407-3.045.323-1.658-.083-2.98-.364-2.955-.628M117.073 316.987c-.324.146-1.123-.982-1.784-2.515a12.75 12.75 0 0 1-.223-.551l-.023-.059a.64.64 0 0 1 .343-.82l.293-.042c1.343.158 2.342.5 2.32.82-.022.32-1.055.515-2.406.48l.613-.923c.082.175.165.356.247.544.667 1.548.944 2.922.62 3.066M121.797 328.99c-.419.128-1.335-1.101-2.05-2.745-.714-1.645-.959-3.094-.547-3.234.412-.141 1.328 1.088 2.05 2.746.718 1.659.963 3.108.547 3.234M125.809 340.994c-.326.101-.951-1.152-1.396-2.8-.446-1.644-.546-3.072-.224-3.187.32-.115.947 1.139 1.397 2.8.448 1.66.548 3.086.223 3.187M128.723 352.997c-.383.075-1.016-1.2-1.414-2.847-.399-1.65-.413-3.057-.034-3.146.379-.088 1.012 1.186 1.414 2.849.4 1.661.416 3.069.034 3.144M131.588 365.999c-.449.05-1.074-1.248-1.398-2.895-.323-1.65-.225-3.037.221-3.102.445-.064 1.07 1.233 1.397 2.896.325 1.663.227 3.05-.22 3.1M132.69 378c-.256.026-.548-1.292-.652-2.94-.105-1.65.017-3.02.272-3.06.255-.038.547 1.278.652 2.942.106 1.665-.017 3.034-.272 3.058M132.548 391c-.276.001-.52-1.335-.546-2.985-.025-1.65.176-3 .451-3.015.275-.015.519 1.322.545 2.986.026 1.664-.176 3.013-.45 3.014"/>
        <path fill="#373F85" d="M115.99 399l24.01-2.42-1.033-8.58L115 392.195l.99 6.805"/>
        <path fill="#374287" d="M177.41 317c-2.312-.03-4.789-.143-7.371-.437-5.171-.56-10.78-1.741-16.477-3.514-5.687-1.794-10.917-3.96-15.53-6.153a152.508 152.508 0 0 1-11.94-6.34c-6.602-3.91-10.418-6.74-10.07-7.402.055-.103.206-.154.446-.154 1.34 0 5.469 1.558 11.399 4.097 3.5 1.489 7.633 3.293 12.24 5.18 4.606 1.886 9.697 3.827 15.12 5.539 5.42 1.684 10.675 2.943 15.51 3.738 2.415.41 4.725.68 6.895.9 1.085.086 2.134.179 3.145.237 1.01.036 1.984.123 2.911.125 1.007.026 1.965.038 2.866.038 1.59 0 3.008-.033 4.232-.066 1.225-.033 2.255-.067 3.067-.067 1.318 0 2.066.087 2.142.4.088.355-.977.998-3.055 1.719-2.073.727-5.184 1.443-9.1 1.853-.978.125-2.006.158-3.08.234a83.56 83.56 0 0 1-3.35.073"/>
        <path fill="#A6C5DD" d="M460.105 284.06L437 178.316l27.078 105.744-13.54-95.999 13.54 69.653L458.3 148s10.108 89.504 10.832 88.061c.72-1.444 2.888-72.18 2.888-72.18s-1.083 106.104 0 105.02c1.082-1.082 6.498-58.104 6.498-58.104s.722 51.248 0 50.166c-.722-1.084 12.635-86.616 12.635-86.616l-5.414 51.246s9.748-38.976 13.357-41.863c0 0-15.163 54.496-16.247 78.676 0 0 16.247-57.744 18.052-60.27l-17.689 81.924s18.05-63.157 22.022-68.03c3.972-4.872 0-1.985 0-1.985l-16.968 70.015-4.693 5.052L465.883 292l-5.778-7.94"/>
        <path fill="#C8DBE8" d="M457 281l6.428 34.545L488.071 317 492 281h-35"/>
        <path fill="#719CAC" d="M481.153 406.941c-.493-.331-2.153-74.986-2.153-74.986h13.501l9.868 74.986s-20.723.33-21.216 0zm-27.138 0l7.4-75.648 11.842.827 1.975 74.821h-21.217zm42.233-82.545l-8.504-.725.114-2.526c6.883.037 11.997.075 11.997.075V316h-47.797s-.34 5.56 0 5.22c.115-.115 5.618-.153 12.85-.152v2.875h-7.891L448 429h2.028l1.88-17.018 23.972.455V429h3.458v-16.79l25.025-.68 2.256 17.47H510l-13.752-104.604zM360 280.016L408.462 428l4.538-1.372L372.464 280l-12.464.016M337.552 277L295 423.577l4.58 1.423L349 280.556 337.552 277"/>
        <path fill="#C8DBE8" d="M269.328 185L262 252h101.673L371 185H269.328"/>
        <path fill="#C8DBE8" d="M302.637 249s2.293 14.71-1.637 17h28.82s4.315-7.044.804-17h-27.987"/>
        <path fill="#A6C5DD" d="M264 238h99.789L370 186H269.793L264 238M318 245a4 4 0 1 1-8 0 4 4 0 0 1 8 0"/>
        <path fill="#81ABC5" d="M269.323 195.672L369 195l-2.568 21.264L267 217l2.323-21.328"/>
        <path fill="#F1F6F8" d="M274 202h16v-2h-16zM274 203.708h30v-.416h-30zM273 206.708h33v-.416h-33zM273 208.709h17v-.418h-17zM273 214h10v-3h-10z"/>
        <path fill="#81ABC5" d="M274 193h8v-2h-8zM329 192h8v-1h-8zM340 192h8v-1h-8zM352 192h8v-1h-8zM288.772 238H270l1.773-16H291l-2.228 16M311.772 238H293l1.772-16H314l-2.228 16M334.77 238H316l1.772-16H337l-2.23 16M357.77 238H339l1.772-16H360l-2.23 16"/>
        <path fill="#ADC6D6" d="M323 217l17.009-22H362l-17.437 21.835L323 217"/>
        <path fill="#4B7A9E" d="M126.996 419.962c-.113.257-1.978-.878-4.469-.985-2.49-.159-4.432.773-4.524.508-.042-.113.392-.503 1.207-.873.812-.37 2.016-.67 3.353-.602 1.336.072 2.511.498 3.293.954.785.455 1.19.893 1.14.998M123.598 417.199c-.04.03-.28-.188-.595-.686a6.134 6.134 0 0 1-.84-2.358 3.054 3.054 0 0 1 .006-.898c.058-.31.162-.669.467-.956.3-.288.797-.383 1.188-.226.393.137.72.468.892.841.178.373.243.77.27 1.15a5.395 5.395 0 0 1-.36 2.348c-.15.376-.342.777-.685 1.12-.333.357-.911.536-1.368.44-.465-.076-.832-.287-1.158-.502a8.862 8.862 0 0 1-1.646-1.45c-.223-.257-.467-.527-.631-.889a1.436 1.436 0 0 1-.138-.613.952.952 0 0 1 .26-.645.941.941 0 0 1 .574-.278c.192-.023.365 0 .522.035.32.075.58.228.8.367a4.723 4.723 0 0 1 1.688 1.84c.265.532.307.864.262.88-.056.022-.195-.265-.519-.716a5.133 5.133 0 0 0-1.704-1.513c-.216-.114-.426-.217-.649-.253-.222-.042-.437-.003-.505.094-.085.101-.088.257.028.498.109.224.312.449.537.69.44.47.959.914 1.535 1.294.28.182.58.334.859.375a.783.783 0 0 0 .715-.235c.82-.96 1.05-2.695.666-3.718a.918.918 0 0 0-.48-.498.5.5 0 0 0-.53.066c-.298.254-.383.844-.349 1.29.076.983.347 1.758.562 2.274.219.518.374.796.326.832"/>
        <path fill="#4B7A9E" d="M133.99 409.001c.097.042-.496 1.729-1.687 4.357a88.962 88.962 0 0 1-5.34 9.914 91.203 91.203 0 0 1-5.058 7.324c-.516.671-1.029 1.294-1.568 1.803-1.065 1.04-2.258 1.51-3.08 1.582-.835.081-1.272-.125-1.257-.165.01-.07.454.016 1.204-.156.748-.166 1.779-.659 2.724-1.681.947-1.006 1.882-2.456 2.968-4 1.071-1.56 2.216-3.297 3.368-5.151 2.309-3.706 4.19-7.188 5.515-9.731 1.317-2.547 2.1-4.145 2.21-4.096M39 383.01c.021.055-.486.327-1.423.773-.936.449-2.309 1.053-4.023 1.764-3.423 1.42-8.226 3.213-13.63 4.873-5.408 1.656-10.385 2.867-14.01 3.608-1.812.373-3.286.641-4.31.794-1.023.155-1.592.214-1.604.157-.023-.122 2.203-.643 5.785-1.532 3.582-.89 8.514-2.185 13.898-3.835a271.971 271.971 0 0 0 13.662-4.624c3.47-1.273 5.607-2.092 5.654-1.977"/>
        <g transform="translate(204)">
            <mask id="d" fill="#fff">
                <use xlink:href="#c"/>
            </mask>
            <path fill="#C8DBE8" d="M159.33 79.663c0 43.808-35.514 79.322-79.322 79.322C36.2 158.985.686 123.47.686 79.663S36.2.34 80.008.34c43.808 0 79.322 35.514 79.322 79.322" mask="url(#d)"/>
            <path fill="#F0AF9F" d="M112.453 127.353v27.634h17.067l-.013-29.026-17.054 1.392M36.907 127.353v27.634h15.732l-.012-29.026-15.72 1.392" mask="url(#d)"/>
        </g>
        <g transform="translate(240 85)">
            <mask id="f" fill="#fff">
                <use xlink:href="#e"/>
            </mask>
            <path fill="#81477B" d="M25.977 2.057S.469 2.646.544 22.445c.086 21.953.3 24.374.3 24.374l17.358 1.304-.08-8.698s3.566 9.535-.14 32.423l57.048 3.37.133-42.047.298 13.017 19.554.455s0-49.924-37.967-46.47c-21.5 1.954-31.071 1.884-31.071 1.884" mask="url(#f)"/>
            <path fill="#B490A9" d="M45.09 21.935c-23.021 0-41.983-.264-44.522-.605l.008-.157c2.572-.34 21.517-.605 44.514-.605 24.742 0 44.805.306 44.805.684 0 .377-20.063.683-44.805.683M50.539 15.627c.642-.42 1.27-.875 1.883-1.353 15.546.039 28.399.2 34.18.417.102.167.205.336.305.503-5.846.232-19.697.403-36.368.433m-16.094-.014c-15.739-.059-28.221-.244-32.536-.48.051-.126.107-.254.161-.377 4.324-.225 16.078-.403 30.955-.467.451.466.925.91 1.42 1.324M58.143 8.775a56.18 56.18 0 0 0 1.11-1.304c8.77.044 16.333.13 21.753.24.278.262.549.53.815.801-5.68.123-13.983.218-23.678.263M28.96 8.76c-9.178-.054-16.893-.154-22.003-.28.315-.258.637-.503.964-.741 4.954-.112 12.025-.2 20.34-.252.217.414.45.841.7 1.273M46.934 27.187c-24.018 0-43.793-.265-46.37-.607 0-.05 0-.102-.002-.151 2.574-.343 22.35-.608 46.372-.608 21.237 0 39.163.207 44.805.492l.115.376c-5.508.288-23.535.498-44.92.498M47.462 34.017c-25.772 0-46.656-.306-46.656-.685 0-.378 20.884-.683 46.656-.683 23.157 0 42.378.248 46.027.571l.044.22c-1.958.182-8.742.339-18.355.442l-.015-.711-.476.717c-7.663.08-17.064.129-27.225.129M48.253 40.845c-11.246 0-21.588-.056-29.765-.148a16.708 16.708 0 0 0-.297-1.07 2715.03 2715.03 0 0 1 30.062-.15c8.201 0 15.922.03 22.675.081l-.804 1.211c-6.56.048-13.993.076-21.871.076m27.083-.12l-.027-1.129c9.286.09 16.223.227 19.245.385l.04.357c-2.997.16-9.945.297-19.258.387m-57.202-.031c-9.36-.109-15.821-.266-17.45-.445-.002-.059-.003-.117-.003-.177 1.626-.179 8.084-.335 17.443-.443l.01 1.065M48.253 47.673c-10.797 0-20.758-.05-28.774-.136a53.991 53.991 0 0 0-.09-1.094c8.03-.085 18.027-.137 28.864-.137 6.43 0 12.563.018 18.166.05l-.842 1.271c-5.374.03-11.216.046-17.324.046m-30.057-.151a980.09 980.09 0 0 1-10.11-.159l-6.742-.506-.082-.006c2.281-.159 8.407-.297 16.925-.394l.009 1.065M48.253 56.603c-10.745 0-20.662-.05-28.658-.136.014-.372.027-.738.037-1.096 7.99-.086 17.893-.135 28.62-.135 4.24 0 8.35.007 12.266.022l-.88 1.326c-3.65.012-7.462.019-11.385.019M48.253 63.957c-10.986 0-21.108-.053-29.193-.141.038-.368.074-.73.108-1.088 8.068-.088 18.148-.14 29.085-.14 2.515 0 4.988.003 7.4.008l-.899 1.355c-2.126.003-4.296.006-6.501.006M48.253 70.26c-8.829 0-17.098-.034-24.202-.094a77.151 77.151 0 0 1-3.924-1.144 2796.99 2796.99 0 0 1 31.35-.129l-.905 1.366-2.32.001" mask="url(#f)"/>
        </g>
        <g transform="translate(204)">
            <mask id="h" fill="#fff">
                <use xlink:href="#g"/>
            </mask>
            <path fill="#E0743C" d="M50.643 26.73c2.142 1.92 1.818 5.356.365 7.795-1.454 2.44-3.771 4.293-5.498 6.564-1.727 2.27-2.832 5.378-1.464 7.861.462.841 1.184 1.56 1.463 2.472.431 1.42-.336 2.944-1.387 4.03-1.052 1.086-2.384 1.893-3.453 2.964-3.521 3.525-3.414 9.447-.65 13.544 2.766 4.095 7.63 6.538 12.594 7.648 5.002 1.119 10.454 1.01 15.054-1.173 3.994-1.893 7.536-5.346 11.993-5.238 2.961.073 5.576 1.743 8.124 3.183 3.38 1.91 7.015 3.532 10.903 4.047 3.886.516 8.071-.181 11.147-2.513 3.074-2.33 4.768-6.45 3.535-10.011-.922-2.66-3.234-4.645-5.603-6.295-1.558-1.084-3.332-2.308-3.563-4.137-.38-3.023 3.62-4.954 4.29-7.93.61-2.704-1.7-5.184-4.04-6.809-2.341-1.625-5.087-3.153-6.023-5.77-.794-2.222-.054-4.664-.292-7-.535-5.25-6.063-8.996-11.545-9.594 0 0-3.658-8.743-15.317-5.198L50.643 26.73" mask="url(#h)"/>
            <path fill="#C6A0A1" d="M90.32 78.016a2.839 2.839 0 0 1-.218-.161c-.063-.11-.124-.219-.185-.332.117.06.234.117.35.175l.053.318" mask="url(#h)"/>
            <path fill="#C96745" d="M90.268 77.698c-.117-.058-.234-.115-.35-.175-1.2-2.213-2.214-5.013-2.832-8.556-.847-4.85-1.263-10.731-1.434-16.53l5.096-4.455c1.642 4.966-1.914 9.087-1.914 9.087-1.117 4.094 1.068 18.32 1.434 20.63" mask="url(#h)"/>
            <path fill="#F0AF9F" d="M56.184 25.21s-10.29 22.603 1.577 37.188c0 0 4.992 7.137 11.419 7.384 0 0 .354 10.062-.637 12.287-.987 2.225-2.966 4.944-6.921 5.438 0 0 5.686 17.553 17.059 16.563 11.371-.989 21.506-18.293 21.506-18.293s-10.384-1.235-13.101-16.81c-2.72-15.575-.99-41.78-.99-41.78l-29.912-1.976" mask="url(#h)"/>
            <path fill="#E0743C" d="M63.87 11.453c.254.113.508.216.769.317 5.188 2.013 13.925 6.805 10.767 11.062-9.979 13.452-25.32 3.899-25.32 3.899s-8.165-6.012-1.548-14.95c3.77-5.09 13.432-1.166 15.331-.328" mask="url(#h)"/>
            <path fill="#E0743C" d="M71.148 25.03c1.12 3.486 5.222 5.7 8.752 4.724.628 2.059 1.283 4.172 2.626 5.854 1.342 1.683 4.388 5.676 6.482 5.179l-.842-15.132-15.428-2.466-1.59 2.77v-.93" mask="url(#h)"/>
            <path fill="#97B0C2" d="M109.85 152.997l.728-19.663.043-1.152.212-5.74.043-1.147.24-6.48-1.266 34.182" mask="url(#h)"/>
            <path fill="#664174" d="M84.808 158.636l1.587-2.402c4.825-.004 9.468-.016 13.82-.04a79.133 79.133 0 0 1-15.407 2.442m19.762-3.715c-5.299-.037-11.126-.058-17.266-.064l3.295-4.987c7.056-.014 13.627-.05 19.37-.102l-.119 3.23a78.968 78.968 0 0 1-5.28 1.923m5.443-6.317c-5.509-.051-11.78-.085-18.51-.1l4.007-6.067c5.309-.019 10.277-.05 14.734-.091l-.231 6.258m.274-7.416c-4.221-.04-8.9-.07-13.893-.088l5.085-7.699c3.214-.018 6.26-.04 9.099-.067l-.291 7.854m.334-9.006c-2.6-.025-5.377-.045-8.295-.063l3.725-5.637c1.65-.012 3.25-.025 4.782-.04l-.212 5.74m.255-6.887c-1.296-.013-2.637-.025-4.018-.035l3.78-5.72c.15-.003.3-.004.452-.005l-.214 5.76" mask="url(#h)"/>
            <path fill="#8B7B98" d="M110.637 119.54l.48-.724-.027.719c-.152 0-.301.002-.453.005M106.05 126.482l.808-1.222c1.38.01 2.722.022 4.018.035l-.043 1.148c-1.533.014-3.131.027-4.782.039M101.48 133.401l.846-1.282c2.918.018 5.696.038 8.295.063l-.043 1.152c-2.838.027-5.885.05-9.099.067M95.51 142.437l.884-1.337c4.993.018 9.672.049 13.893.088l-.043 1.158c-4.457.042-9.425.072-14.734.091M90.6 149.87l.902-1.367c6.732.016 13.002.05 18.51.1l-.042 1.165c-5.744.052-12.315.088-19.37.102M86.395 156.234l.91-1.377c6.139.006 11.966.027 17.265.064a79.458 79.458 0 0 1-4.355 1.274c-4.352.023-8.995.035-13.82.04" mask="url(#h)"/>
        </g>
        <path fill="#C8DBE8" d="M216.506 120L209 144l24-5.084"/>
        <path fill="#C9B9BC" d="M333.5 134v-1 1"/>
        <path fill="#EC9A8B" d="M317 135v-3l16.999.498.001 1.185v.851L317 135M257 139l-16-3.535V133l16 1.233V139"/>
        <path fill="#C96745" d="M291.957 47c-.846 0-1.69-.114-1.954-.153-.012-2.402.012-4.716.054-6.847.66.84 3.468 4.473 3.905 5.928.26.867-.873 1.072-2.005 1.072"/>
        <path fill="#E48B7B" d="M289.512 46l-.07-.013V39s.043.063.115.175a331.712 331.712 0 0 0-.045 6.825"/>
        <path fill="#F0AF9F" d="M289 45.595s5.724-2.224 5.992 1.925C295.257 51.667 289 54 289 54v-8.405M120.951 263L79 228.726 83.86 221 122 237.531 120.951 263"/>
        <path fill="#F0AF9F" d="M82.785 231L85 222.09l-9.2-15.048a2.94 2.94 0 0 0-.996-1.036L65.15 200s-1.248 2.58 3.427 5.827c6.441 4.474-1.1 11.195-1.1 11.195L82.785 231"/>
        <path fill="#F0AF9F" d="M74.059 208.777s-2.629 1.917-4.565 1.506c-1.937-.41-13.621-14.111-15.004-13.243-1.384.867 1.907 5.598 3.266 6.943 1.807 1.787 5.914 5.903 5.552 6.358-.41.516-11.944-7.733-12.767-7.449-2.697.93 3.32 5.338 9.822 9.034 6.502 3.696-.276 1.032-.276 1.032s-10.371-4.647-11.068-2.948c-.574 1.398 11.897 7.118 11.897 7.118s1.108 1.368-1.107.957c-2.213-.41-9.13-3.285-9.822-2.875-.692.412 24.542 16.682 29.23 13.337 4.687-3.344 3.695-7.661 3.695-7.661l-8.853-12.11"/>
        <path fill="#D28577" d="M74.996 219.98c-.048.087-.857-.107-2.081-.728-.6-.318-1.315-.784-1.902-1.516a4.102 4.102 0 0 1-.707-1.285c-.167-.49-.198-1.061-.12-1.578.072-.52.205-.985.287-1.415.079-.426.115-.84.113-1.242.002-.806-.125-1.541-.24-2.16-.251-1.237-.428-2.022-.307-2.055.108-.03.487.678.902 1.919.196.622.397 1.387.444 2.275.023.443.002.917-.076 1.4-.08.478-.203.937-.265 1.384-.148.878.148 1.668.615 2.312.461.641 1.056 1.108 1.584 1.47 1.073.709 1.817 1.105 1.753 1.22"/>
    </g>
</svg>
